<?xml version="1.0" encoding="UTF-8" standalone="no"?>
<!-- Generator: Adobe Illustrator 15.1.0, SVG Export Plug-In . SVG Version: 6.00 Build 0)  -->

<svg
   xmlns:dc="http://purl.org/dc/elements/1.1/"
   xmlns:cc="http://creativecommons.org/ns#"
   xmlns:rdf="http://www.w3.org/1999/02/22-rdf-syntax-ns#"
   xmlns:svg="http://www.w3.org/2000/svg"
   xmlns="http://www.w3.org/2000/svg"
   xmlns:sodipodi="http://sodipodi.sourceforge.net/DTD/sodipodi-0.dtd"
   xmlns:inkscape="http://www.inkscape.org/namespaces/inkscape"
   version="1.0"
   id="trezor"
   inkscape:export-ydpi="300"
   inkscape:export-xdpi="300"
   inkscape:export-filename="/home/stick/work/bitcoin/share-bitkey/logo/logo-black-horiz-2.png"
   sodipodi:docname="TrezorSymmetricFileEncryption.svg"
   inkscape:version="0.48.5 r10040"
   x="0px"
   y="0px"
   width="100%"
   height="100%"
   viewBox="0 0 158.445 211.95606"
   enable-background="new 0 0 685.984 210"
   xml:space="preserve"
   style="fill:#ffffff"><metadata
     id="metadata15"><rdf:RDF><cc:Work
         rdf:about=""><dc:format>image/svg+xml</dc:format><dc:type
           rdf:resource="http://purl.org/dc/dcmitype/StillImage" /><dc:title /></cc:Work></rdf:RDF></metadata><defs
     id="defs13" /><sodipodi:namedview
     fit-margin-bottom="20"
     fit-margin-right="20"
     fit-margin-top="20"
     fit-margin-left="20"
     gridtolerance="10"
     inkscape:current-layer="trezor"
     inkscape:window-maximized="1"
     inkscape:window-y="27"
     inkscape:window-x="0"
     inkscape:cx="261.43939"
     inkscape:window-height="2094"
     inkscape:cy="-34.707829"
     showgrid="false"
     inkscape:window-width="3840"
     inkscape:pageshadow="2"
     inkscape:zoom="0.76280916"
     inkscape:pageopacity="0"
     guidetolerance="10"
     pagecolor="#ffffff"
     bordercolor="#666666"
     objecttolerance="10"
     borderopacity="1"
     id="namedview30" /><rect
     id="rect25"
     x="302.34601"
     y="718.29102"
     display="none"
     width="11"
     height="35"
     style="fill:#ffffff;stroke:#000000;display:none" /><path
     id="path7"
     inkscape:connector-curvature="0"
     d="m 79.280996,20 c -23.563,0 -42.667,19.103 -42.667,42.667 V 78.62 c -8.269,1.479 -16.614,3.522 -16.614,6.133 v 83.586 c 0,0 0,2.344 2.553,3.359 9.427,3.751 46.438,16.869 54.932,19.873 1.119,0.396 1.355,0.385 1.743,0.385 0.408,0 0.619,0.014 1.729,-0.379 8.478,-2.997 45.617004,-16.148 54.985004,-19.857 2.433,-0.963 2.503,-3.347 2.503,-3.347 V 84.757 c 0,-2.61 -8.229,-4.658 -16.499,-6.138 V 62.666 C 121.947,39.103 102.844,20 79.280996,20 z m 0,20.391 c 13.86,0 22.292004,8.416 22.292004,22.276 v 13.898 c -15.649004,-1.14 -28.947004,-1.14 -44.598004,0 V 62.667 c 0,-13.861 8.444,-22.276 22.306,-22.276 z m -0.055,56.692 c 19.389,0.031 35.688004,1.475 35.688004,4.235 0,0 0,51.321 0,52.08 0,0.76 -0.12,0.888 -0.841,1.161 -0.72,0.274 -33.149004,11.993 -33.149004,11.993 0,0 -1.331,0.442 -1.697,0.442 -0.415,0 -1.747,-0.46 -1.747,-0.46 0,0 -32.415,-11.708 -33.143,-11.983 -0.729,-0.274 -0.823,-0.416 -0.823,-1.182 0,-0.844 0,-52.053 0,-52.053 0,-2.835 16.324,-4.264 35.712,-4.233 z"
     style="fill:#000000" /></svg>