<?xml version="1.0" encoding="UTF-8" standalone="no"?>
<!-- Generator: Adobe Illustrator 15.1.0, SVG Export Plug-In . SVG Version: 6.00 Build 0)  -->

<svg
   xmlns:dc="http://purl.org/dc/elements/1.1/"
   xmlns:cc="http://creativecommons.org/ns#"
   xmlns:rdf="http://www.w3.org/1999/02/22-rdf-syntax-ns#"
   xmlns:svg="http://www.w3.org/2000/svg"
   xmlns="http://www.w3.org/2000/svg"
   xmlns:sodipodi="http://sodipodi.sourceforge.net/DTD/sodipodi-0.dtd"
   xmlns:inkscape="http://www.inkscape.org/namespaces/inkscape"
   version="1.0"
   id="trezor"
   inkscape:export-ydpi="52.338955"
   inkscape:export-xdpi="52.338955"
   inkscape:export-filename="/home/manfred/briefcase/workspace/src/github.com/8go/TrezorSymmetricFileEncryption/icons/TrezorSymmetricFileEncryption.png"
   sodipodi:docname="TrezorSymmetricFileEncryption.small.svg"
   inkscape:version="0.48.5 r10040"
   x="0px"
   y="0px"
   width="100%"
   height="100%"
   viewBox="0 0 215.80359 100"
   enable-background="new 0 0 685.984 210"
   xml:space="preserve"
   style="fill:#ffffff"><metadata
     id="metadata15"><rdf:RDF><cc:Work
         rdf:about=""><dc:format>image/svg+xml</dc:format><dc:type
           rdf:resource="http://purl.org/dc/dcmitype/StillImage" /><dc:title></dc:title></cc:Work></rdf:RDF></metadata><defs
     id="defs13"><inkscape:path-effect
       effect="skeletal"
       id="path-effect3036"
       is_visible="true"
       pattern="M 0,5 10,10 10,0 z"
       copytype="single_stretched"
       prop_scale="1"
       scale_y_rel="false"
       spacing="0"
       normal_offset="0"
       tang_offset="0"
       prop_units="false"
       vertical_pattern="false"
       fuse_tolerance="0" /></defs><sodipodi:namedview
     fit-margin-bottom="20"
     fit-margin-right="20"
     fit-margin-top="20"
     fit-margin-left="20"
     gridtolerance="10"
     inkscape:current-layer="trezor"
     inkscape:window-maximized="1"
     inkscape:window-y="27"
     inkscape:window-x="0"
     inkscape:cx="-221.65627"
     inkscape:window-height="2094"
     inkscape:cy="-108.44633"
     showgrid="false"
     inkscape:window-width="3840"
     inkscape:pageshadow="2"
     inkscape:zoom="2.1575501"
     inkscape:pageopacity="0"
     guidetolerance="10"
     pagecolor="#ffffff"
     bordercolor="#666666"
     objecttolerance="10"
     borderopacity="1"
     id="namedview30" /><rect
     id="rect25"
     x="340.77087"
     y="662.31299"
     display="none"
     width="11"
     height="35"
     style="fill:#ffffff;stroke:#000000;stroke-width:1;display:none" /><path
     id="path7"
     inkscape:connector-curvature="0"
     d="m 107.92218,20.000001 c -8.221748,0 -14.887638,6.66554 -14.887638,14.88764 v 5.566423 c -2.88527,0.516062 -5.79706,1.228918 -5.79706,2.139965 V 71.75939 c 0,0 0,0.81788 0.89081,1.17204 3.28933,1.30882 16.203438,5.88604 19.167218,6.93421 0.39045,0.13818 0.4728,0.13434 0.60818,0.13434 0.14236,0 0.21599,0.005 0.60329,-0.13224 2.9582,-1.04573 15.91698,-5.63447 19.18572,-6.92863 0.84894,-0.33602 0.87336,-1.16786 0.87336,-1.16786 V 42.595425 c 0,-0.910698 -2.87131,-1.625299 -5.75693,-2.14171 v -5.566422 c 3.5e-4,-8.221752 -6.66519,-14.887292 -14.88695,-14.887292 z m 0,7.114957 c 4.83612,0 7.77827,2.936564 7.77827,7.772683 v 4.849379 c -5.46035,-0.397776 -10.10037,-0.397776 -15.56142,0 v -4.849379 c 0,-4.836468 2.94634,-7.772683 7.78315,-7.772683 z m -0.0192,19.781332 c 6.76534,0.0108 12.45249,0.51467 12.45249,1.4777 0,0 0,17.90725 0,18.17209 0,0.26518 -0.0419,0.30984 -0.29345,0.4051 -0.25123,0.0956 -11.56656,4.18468 -11.56656,4.18468 0,0 -0.46442,0.15422 -0.59213,0.15422 -0.1448,0 -0.60957,-0.16051 -0.60957,-0.16051 0,0 -11.310448,-4.08522 -11.564468,-4.18118 -0.25437,-0.0956 -0.28717,-0.14515 -0.28717,-0.41243 0,-0.29449 0,-18.16266 0,-18.16266 0,-0.98921 5.695878,-1.48783 12.460858,-1.47701 z"
     style="fill:#000000" /><path
     inkscape:connector-curvature="0"
     d="M 19.999982,28.134624 V 71.86538 h 32.63239 V 50 H 33.985292 V 28.134624 h -13.98531 z m 18.64708,0 V 44.53366 h 13.98531 L 38.647062,28.134624 z"
     id="path4"
     style="fill:#000000" /><path
     inkscape:connector-curvature="0"
     d="M 163.17117,28.134624 V 71.86538 h 32.6324 V 50 H 177.15649 V 28.134624 h -13.98532 z m 18.64709,0 V 44.53366 h 13.98531 L 181.81826,28.134624 z"
     id="path4-3"
     style="fill:#000000" /><flowRoot
     xml:space="preserve"
     id="flowRoot3022"
     style="font-size:40px;font-style:normal;font-weight:normal;line-height:125%;letter-spacing:0px;word-spacing:0px;fill:#000000;fill-opacity:1;stroke:none;font-family:Sans"
     transform="translate(38.424862,-55.97803)"><flowRegion
       id="flowRegion3024"><rect
         id="rect3026"
         width="191.42081"
         height="170.10034"
         x="-826.40027"
         y="188.31815" /></flowRegion><flowPara
       id="flowPara3028" /></flowRoot><path
     sodipodi:type="star"
     style="fill:#4d4d4d;fill-opacity:1"
     id="path3038"
     sodipodi:sides="3"
     sodipodi:cx="-842.15887"
     sodipodi:cy="-103.21622"
     sodipodi:r1="37.824764"
     sodipodi:r2="18.912382"
     sodipodi:arg1="2.0943951"
     sodipodi:arg2="3.1415927"
     inkscape:flatsided="false"
     inkscape:rounded="0"
     inkscape:randomized="0"
     d="m -861.07126,-70.45901 0,-32.75721 0,-32.7572 28.36858,16.3786 28.36857,16.3786 -28.36857,16.378607 z"
     transform="matrix(0.34892635,0,0,0.34892635,362.66087,86.01486)"
     inkscape:transform-center-x="-3.2995228" /><path
     sodipodi:type="star"
     style="fill:#4d4d4d;fill-opacity:1"
     id="path3038-5"
     sodipodi:sides="3"
     sodipodi:cx="-842.15887"
     sodipodi:cy="-103.21622"
     sodipodi:r1="37.824764"
     sodipodi:r2="18.912382"
     sodipodi:arg1="2.0943951"
     sodipodi:arg2="3.1415927"
     inkscape:flatsided="false"
     inkscape:rounded="0"
     inkscape:randomized="0"
     d="m -861.07126,-70.45901 0,-32.75721 0,-32.7572 28.36858,16.3786 28.36857,16.3786 -28.36857,16.378607 z"
     transform="matrix(0.34892635,0,0,0.34892635,434.2465,86.01486)"
     inkscape:transform-center-x="-3.2995265" /></svg>