<?xml version="1.0" encoding="UTF-8" standalone="no"?>
<!-- Generator: Adobe Illustrator 15.1.0, SVG Export Plug-In . SVG Version: 6.00 Build 0)  -->

<svg
   xmlns:dc="http://purl.org/dc/elements/1.1/"
   xmlns:cc="http://creativecommons.org/ns#"
   xmlns:rdf="http://www.w3.org/1999/02/22-rdf-syntax-ns#"
   xmlns:svg="http://www.w3.org/2000/svg"
   xmlns="http://www.w3.org/2000/svg"
   xmlns:sodipodi="http://sodipodi.sourceforge.net/DTD/sodipodi-0.dtd"
   xmlns:inkscape="http://www.inkscape.org/namespaces/inkscape"
   version="1.0"
   id="trezor"
   inkscape:export-ydpi="43.45697"
   inkscape:export-xdpi="43.45697"
   inkscape:export-filename="/home/manfred/briefcase/workspace/src/github.com/8go/TrezorSymmetricFileEncryption/icons/tezor.bg.png"
   sodipodi:docname="trezor.bg2.svg"
   inkscape:version="0.48.5 r10040"
   x="0px"
   y="0px"
   width="100%"
   height="100%"
   viewBox="0 0 183.1649 239.66158"
   enable-background="new 0 0 685.984 210"
   xml:space="preserve"
   style="fill:#ffffff"><metadata
     id="metadata15"><rdf:RDF><cc:Work
         rdf:about=""><dc:format>image/svg+xml</dc:format><dc:type
           rdf:resource="http://purl.org/dc/dcmitype/StillImage" /><dc:title /></cc:Work></rdf:RDF></metadata><defs
     id="defs13" /><sodipodi:namedview
     fit-margin-bottom="20"
     fit-margin-right="20"
     fit-margin-top="20"
     fit-margin-left="20"
     gridtolerance="10"
     inkscape:current-layer="trezor"
     inkscape:window-maximized="1"
     inkscape:window-y="27"
     inkscape:window-x="0"
     inkscape:cx="-67.359196"
     inkscape:window-height="2094"
     inkscape:cy="36.592795"
     showgrid="false"
     inkscape:window-width="3840"
     inkscape:pageshadow="2"
     inkscape:zoom="4.3151002"
     inkscape:pageopacity="0"
     guidetolerance="10"
     pagecolor="#ffffff"
     bordercolor="#666666"
     objecttolerance="10"
     borderopacity="1"
     id="namedview30" /><path
     style="fill:#f2f2f2"
     d="m 91.606496,74.416282 c 38.877064,0.06438 71.558404,3.064449 71.558404,8.798549 0,0 0,106.623189 0,108.200059 0,1.57896 -0.24079,1.8449 -1.6863,2.41205 -1.44367,0.56928 -66.467424,24.91637 -66.467424,24.91637 0,0 -2.668797,0.91827 -3.40267,0.91827 -0.832131,0 -3.502934,-0.95568 -3.502934,-0.95568 0,0 -64.995662,-24.32422 -66.455374,-24.89557 -1.461722,-0.56924 -1.650197,-0.86427 -1.650197,-2.4557 0,-1.75345 0,-108.143957 0,-108.143957 0,-5.889934 32.731433,-8.858797 71.606495,-8.794391 z"
     id="path7-36-7"
     inkscape:connector-curvature="0" /><path
     style="fill:#f2f2f2"
     d="m 91.599486,19.999997 c 33.749504,0 54.281684,20.493205 54.281684,54.242702 v 33.842031 c -38.10579,-2.77594 -70.486799,-2.77594 -108.597437,0 V 74.242699 c 0,-33.751936 20.561383,-54.242702 54.315753,-54.242702 z"
     id="path3007"
     inkscape:connector-curvature="0" /><rect
     id="rect25"
     x="157.89865"
     y="730.5824"
     display="none"
     width="11"
     height="35"
     style="fill:#ffffff;stroke:#000000;stroke-width:1;display:none" /><path
     id="path7"
     inkscape:connector-curvature="0"
     d="m 91.640949,30.772033 c -23.563,0 -42.667,19.103001 -42.667,42.667001 v 15.953 c -8.269,1.479 -16.614,3.522 -16.614,6.132996 v 83.58601 c 0,0 0,2.344 2.553,3.359 9.427,3.751 46.438,16.869 54.932,19.873 1.119,0.396 1.355,0.385 1.743,0.385 0.408,0 0.619,0.014 1.729,-0.379 8.477991,-2.997 45.617001,-16.148 54.985001,-19.857 2.433,-0.963 2.503,-3.347 2.503,-3.347 V 95.52903 c 0,-2.609996 -8.229,-4.657996 -16.499,-6.137996 v -15.953 c 0.001,-23.563 -19.102,-42.666001 -42.665001,-42.666001 z m 0,20.391001 c 13.859991,0 22.292001,8.416 22.292001,22.276 v 13.898 c -15.649001,-1.14 -28.947001,-1.14 -44.598001,0 v -13.898 c 0,-13.861 8.444,-22.276 22.306,-22.276 z m -0.055,56.691996 c 19.388991,0.031 35.688001,1.475 35.688001,4.235 0,0 0,51.32101 0,52.08001 0,0.76 -0.12,0.888 -0.841,1.161 -0.72,0.274 -33.149001,11.993 -33.149001,11.993 0,0 -1.331,0.442 -1.697,0.442 -0.415,0 -1.747,-0.46 -1.747,-0.46 0,0 -32.415,-11.708 -33.143,-11.983 -0.729,-0.274 -0.823,-0.416 -0.823,-1.182 0,-0.844 0,-52.05301 0,-52.05301 0,-2.835 16.324,-4.264 35.712,-4.233 z"
     style="fill:#000000" /></svg>