<?xml version="1.0" encoding="UTF-8" standalone="no"?>
<!-- Generator: Adobe Illustrator 15.1.0, SVG Export Plug-In . SVG Version: 6.00 Build 0)  -->

<svg
   xmlns:dc="http://purl.org/dc/elements/1.1/"
   xmlns:cc="http://creativecommons.org/ns#"
   xmlns:rdf="http://www.w3.org/1999/02/22-rdf-syntax-ns#"
   xmlns:svg="http://www.w3.org/2000/svg"
   xmlns="http://www.w3.org/2000/svg"
   xmlns:sodipodi="http://sodipodi.sourceforge.net/DTD/sodipodi-0.dtd"
   xmlns:inkscape="http://www.inkscape.org/namespaces/inkscape"
   version="1.0"
   id="trezor"
   inkscape:export-ydpi="93.678757"
   inkscape:export-xdpi="93.678757"
   inkscape:export-filename="/home/manfred/briefcase/workspace/src/github.com/8go/TrezorSymmetricFileEncryption/icons/TrezorSymmetricFileEncryption.icon.png"
   sodipodi:docname="TrezorSymmetricFileEncryption.icon.svg"
   inkscape:version="0.48.5 r10040"
   x="0px"
   y="0px"
   width="100%"
   height="100%"
   viewBox="0 0 183.44605 245.9469"
   enable-background="new 0 0 685.984 210"
   xml:space="preserve"
   style="fill:#ffffff"><metadata
     id="metadata15"><rdf:RDF><cc:Work
         rdf:about=""><dc:format>image/svg+xml</dc:format><dc:type
           rdf:resource="http://purl.org/dc/dcmitype/StillImage" /><dc:title></dc:title></cc:Work></rdf:RDF></metadata><defs
     id="defs13"><inkscape:path-effect
       effect="skeletal"
       id="path-effect3036"
       is_visible="true"
       pattern="M 0,5 10,10 10,0 z"
       copytype="single_stretched"
       prop_scale="1"
       scale_y_rel="false"
       spacing="0"
       normal_offset="0"
       tang_offset="0"
       prop_units="false"
       vertical_pattern="false"
       fuse_tolerance="0" /></defs><sodipodi:namedview
     fit-margin-bottom="0"
     fit-margin-right="0"
     fit-margin-top="0"
     fit-margin-left="0"
     gridtolerance="10"
     inkscape:current-layer="trezor"
     inkscape:window-maximized="1"
     inkscape:window-y="27"
     inkscape:window-x="0"
     inkscape:cx="91.651928"
     inkscape:window-height="2094"
     inkscape:cy="151.75374"
     showgrid="false"
     inkscape:window-width="3840"
     inkscape:pageshadow="2"
     inkscape:zoom="3.0512366"
     inkscape:pageopacity="0"
     guidetolerance="10"
     pagecolor="#ffffff"
     bordercolor="#666666"
     objecttolerance="10"
     borderopacity="1"
     id="namedview30"
     showborder="false" /><rect
     style="fill:#f2f2f2;fill-opacity:1;stroke-width:12;stroke-miterlimit:4;stroke-dasharray:none"
     id="rect3008"
     width="107.33353"
     height="125.03127"
     x="75.886719"
     y="0" /><path
     inkscape:connector-curvature="0"
     d="M -1.8182653e-5,0.11037381 V 245.9469 H 183.44604 V 123.02863 H 78.619722 V 0.11037381 H -1.8182653e-5 z m 104.826318182653,0 V 92.299074 h 78.61974 L 104.8263,0.11037381 z"
     id="path4"
     style="fill:#4d4d4d" /><rect
     id="rect25"
     x="565.43689"
     y="436.85492"
     display="none"
     width="11"
     height="35"
     style="fill:#ffffff;stroke:#000000;stroke-width:1;display:none" /><flowRoot
     xml:space="preserve"
     id="flowRoot3022"
     style="font-size:40px;font-style:normal;font-weight:normal;line-height:125%;letter-spacing:0px;word-spacing:0px;fill:#000000;fill-opacity:1;stroke:none;font-family:Sans"
     transform="translate(263.09086,-281.4361)"><flowRegion
       id="flowRegion3024"><rect
         id="rect3026"
         width="191.42081"
         height="170.10034"
         x="-826.40027"
         y="188.31815" /></flowRegion><flowPara
       id="flowPara3028" /></flowRoot><g
     id="g3003"
     transform="translate(814.27958,240.45214)"><path
       inkscape:connector-curvature="0"
       id="path7-36-7"
       d="m -720.70086,-161.14493 c 38.87706,0.0644 71.55841,3.06445 71.55841,8.79855 0,0 0,106.623181 0,108.200051 0,1.57896 -0.24079,1.8449 -1.6863,2.41205 -1.44367,0.56928 -66.46743,24.91637 -66.46743,24.91637 0,0 -2.66879,0.91828 -3.40267,0.91828 -0.83213,0 -3.50293,-0.95569 -3.50293,-0.95569 0,0 -64.99566,-24.32422 -66.45538,-24.89557 -1.46172,-0.56924 -1.65019,-0.86427 -1.65019,-2.4557 0,-1.75345 0,-108.143951 0,-108.143951 0,-5.88994 32.73143,-8.8588 71.60649,-8.79439 z"
       style="fill:#f2f2f2" /><path
       inkscape:connector-curvature="0"
       id="path3007"
       d="m -720.70787,-215.56122 c 33.7495,0 54.28168,20.49321 54.28168,54.2427 v 33.84204 c -38.10578,-2.77594 -70.48679,-2.77594 -108.59743,0 v -33.84204 c 0,-33.75193 20.56138,-54.2427 54.31575,-54.2427 z"
       style="fill:#f2f2f2" /><path
       style="fill:#000000"
       d="m -720.6664,-204.78918 c -23.563,0 -42.667,19.103 -42.667,42.667 v 15.953 c -8.26901,1.479 -16.61401,3.522 -16.61401,6.133 v 83.586001 c 0,0 0,2.344 2.553,3.359 9.427,3.751 46.43801,16.869 54.93201,19.873 1.119,0.396 1.355,0.385 1.743,0.385 0.408,0 0.619,0.014 1.729,-0.379 8.47799,-2.997 45.61699,-16.148 54.985,-19.857 2.433,-0.963 2.503,-3.347 2.503,-3.347 v -83.616001 c 0,-2.61 -8.22901,-4.658 -16.49901,-6.138 v -15.953 c 10e-4,-23.563 -19.10199,-42.666 -42.66499,-42.666 z m 0,20.391 c 13.85999,0 22.292,8.416 22.292,22.276 v 13.898 c -15.649,-1.14 -28.947,-1.14 -44.598,0 v -13.898 c 0,-13.861 8.444,-22.276 22.306,-22.276 z m -0.055,56.692 c 19.38899,0.031 35.68799,1.475 35.68799,4.235 0,0 0,51.321001 0,52.080001 0,0.76 -0.12,0.888 -0.841,1.161 -0.72,0.274 -33.14899,11.993 -33.14899,11.993 0,0 -1.331,0.442 -1.697,0.442 -0.415,0 -1.747,-0.46 -1.747,-0.46 0,0 -32.415,-11.708 -33.143,-11.983 -0.729,-0.274 -0.823,-0.416 -0.823,-1.182 0,-0.844 0,-52.053001 0,-52.053001 0,-2.835 16.324,-4.264 35.712,-4.233 z"
       inkscape:connector-curvature="0"
       id="path7-3" /></g></svg>