<?xml version="1.0" encoding="UTF-8" standalone="no"?>
<!-- Generator: Adobe Illustrator 15.1.0, SVG Export Plug-In . SVG Version: 6.00 Build 0)  -->

<svg
   xmlns:dc="http://purl.org/dc/elements/1.1/"
   xmlns:cc="http://creativecommons.org/ns#"
   xmlns:rdf="http://www.w3.org/1999/02/22-rdf-syntax-ns#"
   xmlns:svg="http://www.w3.org/2000/svg"
   xmlns="http://www.w3.org/2000/svg"
   xmlns:sodipodi="http://sodipodi.sourceforge.net/DTD/sodipodi-0.dtd"
   xmlns:inkscape="http://www.inkscape.org/namespaces/inkscape"
   version="1.0"
   id="trezor"
   inkscape:export-ydpi="52.338955"
   inkscape:export-xdpi="52.338955"
   inkscape:export-filename="/home/manfred/briefcase/workspace/src/github.com/8go/TrezorSymmetricFileEncryption/icons/TrezorSymmetricFileEncryption.png"
   sodipodi:docname="TrezorSymmetricFileEncryption.svg"
   inkscape:version="0.48.5 r10040"
   x="0px"
   y="0px"
   width="100%"
   height="100%"
   viewBox="0 0 543.84153 211.95606"
   enable-background="new 0 0 685.984 210"
   xml:space="preserve"
   style="fill:#ffffff"><metadata
     id="metadata15"><rdf:RDF><cc:Work
         rdf:about=""><dc:format>image/svg+xml</dc:format><dc:type
           rdf:resource="http://purl.org/dc/dcmitype/StillImage" /><dc:title></dc:title></cc:Work></rdf:RDF></metadata><defs
     id="defs13"><inkscape:path-effect
       effect="skeletal"
       id="path-effect3036"
       is_visible="true"
       pattern="M 0,5 10,10 10,0 z"
       copytype="single_stretched"
       prop_scale="1"
       scale_y_rel="false"
       spacing="0"
       normal_offset="0"
       tang_offset="0"
       prop_units="false"
       vertical_pattern="false"
       fuse_tolerance="0" /></defs><sodipodi:namedview
     fit-margin-bottom="20"
     fit-margin-right="20"
     fit-margin-top="20"
     fit-margin-left="20"
     gridtolerance="10"
     inkscape:current-layer="trezor"
     inkscape:window-maximized="1"
     inkscape:window-y="27"
     inkscape:window-x="0"
     inkscape:cx="24.863694"
     inkscape:window-height="2094"
     inkscape:cy="-52.468299"
     showgrid="false"
     inkscape:window-width="3840"
     inkscape:pageshadow="2"
     inkscape:zoom="2.1575501"
     inkscape:pageopacity="0"
     guidetolerance="10"
     pagecolor="#ffffff"
     bordercolor="#666666"
     objecttolerance="10"
     borderopacity="1"
     id="namedview30" /><rect
     id="rect25"
     x="504.78986"
     y="718.29102"
     display="none"
     width="11"
     height="35"
     style="fill:#ffffff;stroke:#000000;stroke-width:1;display:none" /><path
     id="path7"
     inkscape:connector-curvature="0"
     d="m 271.97926,20.000001 c -23.563,0 -42.667,19.103 -42.667,42.667 v 15.953 c -8.269,1.479 -16.614,3.522 -16.614,6.133 V 168.339 c 0,0 0,2.344 2.553,3.359 9.427,3.751 46.438,16.869 54.932,19.873 1.119,0.396 1.355,0.385 1.743,0.385 0.408,0 0.619,0.014 1.729,-0.379 8.478,-2.997 45.617,-16.148 54.985,-19.857 2.433,-0.963 2.503,-3.347 2.503,-3.347 V 84.757001 c 0,-2.61 -8.229,-4.658 -16.499,-6.138 v -15.953 c 0.001,-23.563 -19.102,-42.666 -42.665,-42.666 z m 0,20.391 c 13.86,0 22.292,8.416 22.292,22.276 v 13.898 c -15.649,-1.14 -28.947,-1.14 -44.598,0 v -13.898 c 0,-13.861 8.444,-22.276 22.306,-22.276 z m -0.055,56.692 c 19.389,0.031 35.688,1.475 35.688,4.234999 0,0 0,51.321 0,52.08 0,0.76 -0.12,0.888 -0.841,1.161 -0.72,0.274 -33.149,11.993 -33.149,11.993 0,0 -1.331,0.442 -1.697,0.442 -0.415,0 -1.747,-0.46 -1.747,-0.46 0,0 -32.415,-11.708 -33.143,-11.983 -0.729,-0.274 -0.823,-0.416 -0.823,-1.182 0,-0.844 0,-52.053 0,-52.053 0,-2.834999 16.324,-4.263999 35.712,-4.232999 z"
     style="fill:#000000" /><path
     inkscape:connector-curvature="0"
     d="M 19.999995,43.313297 V 168.64277 H 113.5223 V 105.97803 H 60.080985 V 43.313297 h -40.08099 z m 53.44132,0 v 46.99855 H 113.5223 L 73.441315,43.313297 z"
     id="path4"
     style="fill:#000000" /><path
     inkscape:connector-curvature="0"
     d="M 430.31923,43.313296 V 168.64277 h 93.5223 V 105.97803 H 470.40022 V 43.313296 h -40.08099 z m 53.44132,0 V 90.31185 h 40.08098 L 483.76055,43.313296 z"
     id="path4-3"
     style="fill:#000000" /><flowRoot
     xml:space="preserve"
     id="flowRoot3022"
     style="font-size:40px;font-style:normal;font-weight:normal;line-height:125%;letter-spacing:0px;word-spacing:0px;fill:#000000;fill-opacity:1;stroke:none;font-family:Sans"
     transform="translate(202.44385,5.0128318e-7)"><flowRegion
       id="flowRegion3024"><rect
         id="rect3026"
         width="191.42081"
         height="170.10034"
         x="-826.40027"
         y="188.31815" /></flowRegion><flowPara
       id="flowPara3028"></flowPara></flowRoot><path
     sodipodi:type="star"
     style="fill:#4d4d4d;fill-opacity:1"
     id="path3038"
     sodipodi:sides="3"
     sodipodi:cx="-842.15887"
     sodipodi:cy="-103.21622"
     sodipodi:r1="37.824764"
     sodipodi:r2="18.912382"
     sodipodi:arg1="2.0943951"
     sodipodi:arg2="3.1415927"
     inkscape:flatsided="false"
     inkscape:rounded="0"
     inkscape:randomized="0"
     d="m -861.07126,-70.45901 0,-32.75721 0,-32.7572 28.36858,16.3786 28.36857,16.3786 -28.36857,16.378607 z"
     transform="translate(1002.0436,209.19425)"
     inkscape:transform-center-x="-9.4562118" /><path
     sodipodi:type="star"
     style="fill:#4d4d4d;fill-opacity:1"
     id="path3038-5"
     sodipodi:sides="3"
     sodipodi:cx="-842.15887"
     sodipodi:cy="-103.21622"
     sodipodi:r1="37.824764"
     sodipodi:r2="18.912382"
     sodipodi:arg1="2.0943951"
     sodipodi:arg2="3.1415927"
     inkscape:flatsided="false"
     inkscape:rounded="0"
     inkscape:randomized="0"
     d="m -861.07126,-70.45901 0,-32.75721 0,-32.7572 28.36858,16.3786 28.36857,16.3786 -28.36857,16.378607 z"
     transform="translate(1207.2033,209.19425)"
     inkscape:transform-center-x="-9.4562118" /></svg>